<?xml version="1.0" encoding="UTF-8"?>
<svg xmlns="http://www.w3.org/2000/svg" width="28" height="25" viewBox="0 0 28 25" fill="none">
  <path d="M14.3249 0C11.5375 0.00208684 8.83548 0.962055 6.67157 2.71907C4.50765 4.47608 3.01329 6.9234 2.43888 9.65098C2.39532 9.80428 2.35177 9.98197 2.30648 10.2067C2.17757 10.8495 1.74031 11.1701 1.36577 11.4836C0.864059 11.9035 0.146333 12.5289 0 13.1682C0.553973 12.5585 1.6114 12.1439 2.56953 12.1787C3.52243 12.2972 4.19138 12.7013 4.7349 13.0497C4.96802 13.1993 5.24511 13.265 5.52057 13.2361C5.6349 13.2299 5.74574 13.1946 5.84267 13.1336C5.93959 13.0727 6.01939 12.9881 6.07454 12.8877C6.1326 12.765 6.15838 12.6295 6.14945 12.494C6.14506 12.3542 6.12041 12.2157 6.07628 12.0829C5.92124 11.5899 6.17732 10.8635 7.15113 10.5638C7.54658 10.3356 7.96119 10.1283 8.25908 9.8095C8.65975 9.38444 8.73988 8.66323 8.97158 8.13888C9.01143 8.04296 9.07075 7.95636 9.14578 7.88454C9.93145 6.55535 11.3739 6.61284 12.2118 6.8393C13.095 7.07274 13.3981 6.31669 14.5601 6.02576C15.722 5.73484 16.5199 6.02577 17.5721 6.9055C17.744 7.04937 17.8916 7.21995 18.0094 7.4107C18.0257 7.43847 18.0438 7.46522 18.0634 7.49083C18.1211 7.56732 18.1696 7.65035 18.2079 7.73821C18.2201 7.76782 18.2323 7.79743 18.2463 7.82705C18.2602 7.85666 18.295 7.93854 18.316 7.9908C18.4077 8.2251 18.4708 8.46958 18.5041 8.71898C18.7323 9.8757 17.9344 11.062 16.7951 11.5446C15.7987 11.9679 14.8702 11.778 14.1977 11.2101C14.4648 11.4667 14.7851 11.6613 15.1358 11.7802C15.4866 11.8991 15.8592 11.9394 16.2272 11.8982C16.7121 11.871 17.1854 11.74 17.6152 11.514C18.045 11.288 18.4212 10.9722 18.7184 10.5882C19.3246 9.81473 19.6957 8.91758 20.9621 9.1754C21.9673 9.37922 22.3262 10.0325 22.4586 10.4924C22.6153 10.8408 22.7704 11.1892 23.1188 11.3512C23.4672 11.5132 23.8156 11.461 24.164 11.4993C24.2391 11.5067 24.3136 11.5189 24.387 11.5359C24.582 11.5241 24.7774 11.5483 24.9636 11.6073C25.5803 11.7815 26.258 12.4539 26.258 12.4539L26.4688 12.6281C26.4688 12.4679 26.4775 12.3094 26.4775 12.1473C26.4761 8.92519 25.1951 5.83548 22.9162 3.55756C20.6373 1.27964 17.5471 -2.97952e-07 14.3249 0Z" fill="black"></path>
  <path d="M25.5337 14.585L25.403 14.7104C25.3047 14.8049 25.2139 14.9068 25.1312 15.0153C25.0354 15.1424 24.9292 15.2522 24.7828 15.4368C24.3817 15.8453 23.9094 16.177 23.3892 16.4159C22.9323 16.6248 22.4504 16.7741 21.9555 16.8601C21.7969 16.8943 21.6351 16.9112 21.4729 16.9106H20.8928C20.8423 16.9133 20.7918 16.9133 20.7413 16.9106C20.25 16.8618 19.8824 16.7172 19.3145 16.4281C18.1979 15.8601 17.9122 15.9385 16.8095 16.4577C16.2659 16.7138 15.82 16.8061 15.4071 16.7416C15.3583 16.7416 15.3095 16.7416 15.2608 16.7416C15.1964 16.7352 15.1324 16.7254 15.0691 16.712C14.5928 16.6406 14.1356 16.4748 13.7243 16.2242C13.5833 16.1593 13.4461 16.0866 13.3132 16.0065C12.8817 15.7595 12.4776 15.4675 12.1076 15.1355C11.8551 14.9107 11.5624 14.6668 11.2488 14.6128C11.1595 14.5904 11.0674 14.581 10.9753 14.585C10.8099 14.5948 10.6503 14.6496 10.5137 14.7435H10.5381C10.6972 14.6696 10.8723 14.6369 11.0474 14.6485C11.2224 14.66 11.3917 14.7155 11.5397 14.8097C11.9439 15.0449 12.2366 16.1302 11.5397 16.8566C10.8429 17.583 9.67748 17.9611 8.22984 17.7677C7.48272 17.687 6.76044 17.4523 6.10859 17.0784C5.45674 16.7045 4.88948 16.1995 4.44261 15.5954C2.87476 13.5693 2.33299 13.6234 2.24414 13.5815C2.5661 16.3443 3.82604 18.913 5.81362 20.8588C7.80119 22.8046 10.3961 24.0097 13.1651 24.2729C15.9341 24.5361 18.7095 23.8415 21.0281 22.305C23.3467 20.7685 25.068 18.4832 25.9047 15.8305C26.0592 15.4878 26.2571 15.1664 26.4935 14.8741C26.8035 14.4991 27.1432 14.1496 27.5091 13.8289C26.3141 13.8881 25.8525 14.2575 25.5337 14.585Z" fill="black"></path>
</svg>
