<svg width="227" height="25" viewBox="0 0 227 25" fill="none" xmlns="http://www.w3.org/2000/svg">
<path d="M49.2271 13.8267C48.4142 13.8755 47.6285 13.8993 46.8701 13.8981C46.1118 13.8969 45.1014 13.8569 43.839 13.7779C43.8059 13.7779 43.7797 13.7988 43.7554 13.8389C43.731 13.8787 43.7183 13.9246 43.7188 13.9713C43.7188 14.1002 43.7675 14.1629 43.8634 14.1629C44.7448 14.1629 45.3667 14.2204 45.7274 14.3371C45.8903 14.3788 46.0399 14.4616 46.1619 14.5774C46.2839 14.6933 46.3741 14.8385 46.4242 14.9991C46.527 15.3283 46.5792 15.9084 46.5792 16.7411C46.5792 17.5738 46.4747 18.1766 46.2674 18.5929C46.1701 18.7939 46.0323 18.9725 45.8626 19.1176C45.6929 19.2627 45.495 19.3712 45.2814 19.4361C44.6605 19.5998 44.019 19.6714 43.3773 19.6486C42.0461 19.6663 40.7369 19.3076 39.6006 18.6138C38.4723 17.9188 37.5597 16.9235 36.9648 15.7395C36.3155 14.4429 35.9897 13.0084 36.0154 11.5585C36.0154 9.52149 36.5688 7.91764 37.6756 6.74698C38.7824 5.57632 40.3479 4.99505 42.3722 5.00318C43.7182 5.00318 44.8528 5.31617 45.7761 5.94215C46.7091 6.57926 47.3876 7.52485 47.6924 8.61271C47.7098 8.65975 47.7603 8.68065 47.8492 8.67194C47.938 8.66323 47.9816 8.63536 47.9816 8.58832L47.6924 5.89337C47.6878 5.77515 47.6679 5.65804 47.6332 5.54495C47.576 5.45841 47.4974 5.38819 47.405 5.34114C46.8634 5.03352 46.2748 4.8175 45.6629 4.7018C44.9233 4.54741 44.1695 4.47093 43.4139 4.47359C41.7895 4.44702 40.1806 4.79264 38.7104 5.48399C37.3833 6.10611 36.2519 7.07969 35.4388 8.29915C34.6366 9.528 34.2215 10.9692 34.2472 12.4365C34.2293 13.7964 34.5829 15.1354 35.2698 16.3091C35.9778 17.4889 37.0092 18.4411 38.2417 19.0528C39.539 19.7253 41.0621 20.0621 42.8112 20.0632C44.5394 20.0311 46.2585 19.805 47.9363 19.3891C48.0144 19.3724 48.0881 19.3391 48.1523 19.2915C48.1914 19.2357 48.2088 19.1676 48.2011 19.0999C48.1847 18.9061 48.1562 18.7135 48.1157 18.5233C48.0472 18.0129 48.0192 17.498 48.0321 16.9833C48.0207 16.3408 48.0446 15.6982 48.1035 15.0583C48.1523 14.6907 48.2568 14.4451 48.4171 14.3249C48.5774 14.2047 48.8491 14.1507 49.2341 14.1681C49.3142 14.1681 49.3543 14.1101 49.3543 13.9939C49.3531 13.9554 49.341 13.9179 49.3195 13.8859C49.3112 13.8683 49.2982 13.8534 49.2819 13.8429C49.2655 13.8325 49.2466 13.8268 49.2271 13.8267Z" fill="white"/>
<path d="M67.0535 19.48C66.7945 19.4813 66.5382 19.4272 66.3017 19.3215C66.0653 19.2157 65.8541 19.0607 65.6825 18.8668C65.2969 18.458 64.8323 17.6601 64.2888 16.4732L58.6115 4.51747C58.5941 4.46869 58.547 4.44605 58.4669 4.44605C58.4341 4.4416 58.4008 4.44586 58.3702 4.4584C58.3396 4.47094 58.3129 4.49131 58.2927 4.51747L53.2198 16.5011C52.9663 17.1403 52.6567 17.7559 52.2948 18.3407C52.0755 18.7059 51.7698 19.0116 51.4046 19.2309C51.0507 19.409 50.6578 19.4958 50.2618 19.4835C50.1817 19.4835 50.1416 19.5322 50.1416 19.628C50.1416 19.7239 50.1817 19.7726 50.2618 19.7726C50.5823 19.7726 50.983 19.7564 51.4638 19.7239C52.0091 19.6925 52.4899 19.6751 52.908 19.6751C53.3557 19.6751 53.8853 19.6925 54.495 19.7239C55.0403 19.757 55.4584 19.7726 55.7458 19.7726C55.8259 19.7726 55.866 19.7239 55.866 19.628C55.866 19.5322 55.8259 19.4835 55.7458 19.4835C54.1745 19.4835 53.3888 19.0102 53.3888 18.0637C53.4153 17.5975 53.53 17.1405 53.7268 16.7171L55.7946 11.8097H60.3413L63.1077 17.7031C63.2751 18.0256 63.3809 18.3765 63.4195 18.7379C63.4236 18.8652 63.386 18.9905 63.3125 19.0946C63.2389 19.1986 63.1334 19.2758 63.0119 19.3145C62.5927 19.4503 62.1525 19.5094 61.7123 19.4887C61.6479 19.4887 61.6165 19.5375 61.6165 19.6333C61.6165 19.7291 61.6479 19.7779 61.7123 19.7779C61.9841 19.7779 62.3772 19.7616 62.8917 19.7291C63.437 19.6977 63.8847 19.6803 64.2383 19.6803C64.5275 19.6803 64.9926 19.6977 65.6319 19.7291C66.2713 19.7604 66.7469 19.7779 67.0517 19.7779C67.1144 19.7779 67.1475 19.7291 67.1475 19.6333C67.1475 19.5375 67.1162 19.48 67.0535 19.48ZM56.0106 11.2923L57.9356 6.72117L60.1009 11.301L56.0106 11.2923Z" fill="white"/>
<path d="M84.0592 4.7334L83.0732 4.75778C82.5506 4.79088 82.1604 4.80656 81.8712 4.80656C81.582 4.80656 81.1744 4.79088 80.6918 4.75778L79.7546 4.7334C79.7215 4.7334 79.7058 4.78217 79.7058 4.87799C79.7058 4.9738 79.7215 5.02257 79.7546 5.02257C80.4108 5.02257 80.88 5.20665 81.1622 5.57481C81.4444 5.94296 81.5843 6.54455 81.582 7.37958V17.372L72.3195 5.9929C72.1279 5.7525 71.9357 5.4877 71.7429 5.19852C71.6608 5.06798 71.5687 4.94393 71.4676 4.82747C71.3902 4.76351 71.2906 4.73282 71.1907 4.74211C71.0617 4.74211 70.8858 4.75082 70.668 4.7665C70.4503 4.78218 70.1541 4.79088 69.797 4.79088C69.4399 4.79088 69.196 4.78218 69.0026 4.7665L68.1124 4.74211C68.0637 4.74211 68.041 4.79088 68.041 4.88669C68.041 4.98251 68.0637 5.03129 68.1124 5.03129C68.7535 5.03129 69.387 5.32163 70.013 5.90232V17.1612C70.013 17.9939 69.869 18.5914 69.581 18.9538C69.2918 19.3126 68.8023 19.4938 68.1124 19.4938C68.0811 19.4938 68.0637 19.5426 68.0637 19.6384C68.0637 19.7342 68.0811 19.783 68.1124 19.783C68.5445 19.783 68.8737 19.7743 69.0984 19.7586L70.3179 19.7342L71.5216 19.7586C71.7307 19.7743 72.0443 19.783 72.4362 19.783C72.4833 19.783 72.5076 19.7342 72.5076 19.6384C72.5076 19.5426 72.4833 19.4938 72.4362 19.4938C71.7777 19.4938 71.3004 19.3196 71.0043 18.9538C70.7081 18.5879 70.56 17.9939 70.56 17.1612V6.465L70.776 6.70714L81.8416 20.1053C81.8663 20.1235 81.8952 20.1353 81.9256 20.1395C81.956 20.1438 81.987 20.1404 82.0158 20.1297C82.0959 20.114 82.136 20.0896 82.136 20.0582V7.37958C82.136 6.54688 82.2881 5.94528 82.5924 5.57481C82.8967 5.20433 83.3856 5.02025 84.0592 5.02257C84.108 5.02257 84.1324 4.9738 84.1324 4.87799C84.1324 4.78217 84.108 4.7334 84.0592 4.7334Z" fill="white"/>
<path d="M100.779 13.8267C99.9607 13.8755 99.1744 13.8993 98.4207 13.8981C97.667 13.8969 96.6566 13.8569 95.3895 13.7779C95.3715 13.7798 95.3542 13.7864 95.3395 13.7971C95.3248 13.8078 95.3132 13.8222 95.3059 13.8389C95.2816 13.8787 95.2689 13.9246 95.2693 13.9713C95.2693 14.1002 95.3181 14.1629 95.4139 14.1629C96.2954 14.1629 96.9173 14.2204 97.2779 14.3371C97.4409 14.3788 97.5905 14.4616 97.7125 14.5774C97.8344 14.6933 97.9247 14.8385 97.9747 14.9991C98.0793 15.3283 98.1298 15.9084 98.1298 16.7411C98.1298 17.5738 98.0253 18.1766 97.818 18.5929C97.7208 18.794 97.5831 18.9728 97.4133 19.1179C97.2436 19.263 97.0457 19.3714 96.832 19.4361C96.2156 19.5984 95.5789 19.67 94.9418 19.6486C93.6135 19.6672 92.307 19.3101 91.1727 18.6185C90.0385 17.9269 89.1228 16.9289 88.5311 15.7395C87.8804 14.4433 87.554 13.0086 87.5799 11.5585C87.5799 9.52149 88.1333 7.91764 89.2401 6.74698C90.3469 5.57632 91.9078 4.99505 93.9227 5.00318C95.2699 5.00318 96.4046 5.31617 97.3267 5.94215C98.259 6.5799 98.9374 7.52525 99.243 8.61271C99.2586 8.65975 99.3109 8.68065 99.3997 8.67194C99.4886 8.66323 99.5304 8.63536 99.5304 8.58832L99.243 5.89337C99.2381 5.77505 99.2176 5.65789 99.182 5.54495C99.1253 5.45798 99.0466 5.38764 98.9538 5.34114C98.4123 5.03352 97.8237 4.8175 97.2117 4.7018C96.4721 4.54727 95.7183 4.47079 94.9627 4.47359C93.3383 4.44702 91.7294 4.79264 90.2592 5.48399C88.9321 6.10611 87.8007 7.07969 86.9876 8.29915C86.1854 9.528 85.7704 10.9692 85.796 12.4365C85.7781 13.7964 86.1317 15.1354 86.8186 16.3091C87.5271 17.4886 88.5584 18.4406 89.7906 19.0528C91.089 19.7253 92.6121 20.0621 94.36 20.0632C96.0882 20.0311 97.8074 19.805 99.4851 19.3891C99.5634 19.3728 99.6372 19.3395 99.7011 19.2915C99.7403 19.2357 99.7576 19.1676 99.7499 19.0999C99.7345 18.906 99.706 18.7133 99.6645 18.5233C99.596 18.0129 99.5681 17.498 99.5809 16.9833C99.569 16.3408 99.5934 15.6981 99.6541 15.0583C99.7011 14.6907 99.8056 14.4451 99.9659 14.3249C100.126 14.2047 100.4 14.1507 100.785 14.1681C100.863 14.1681 100.903 14.1124 100.903 13.9939C100.902 13.9554 100.89 13.9179 100.868 13.8859C100.86 13.8688 100.848 13.8543 100.832 13.8439C100.817 13.8334 100.798 13.8275 100.779 13.8267Z" fill="white"/>
<path d="M128.694 16.1606C128.652 16.1441 128.608 16.1358 128.563 16.1362C128.499 16.1362 128.466 16.1519 128.466 16.1832C128.289 17.146 127.945 17.9009 127.432 18.4479C127.189 18.7123 126.893 18.922 126.562 19.0631C126.232 19.2043 125.875 19.2737 125.516 19.2666H123.583C123.178 19.2824 122.774 19.242 122.381 19.1464C122.267 19.1164 122.162 19.062 122.071 18.9871C121.981 18.9122 121.908 18.8186 121.858 18.7127C121.744 18.397 121.695 18.0617 121.713 17.7267V12.1904H124.576C125.377 12.1904 125.952 12.3437 126.295 12.6468C126.638 12.95 126.818 13.4569 126.818 14.1624C126.818 14.1955 126.866 14.2112 126.964 14.2112C127.061 14.2112 127.107 14.1955 127.107 14.1624L127.082 13.0074C127.067 12.767 127.06 12.4146 127.06 11.95L127.082 10.0007C127.082 9.9693 127.035 9.95363 126.939 9.95363C126.844 9.95363 126.795 9.9693 126.795 10.0007C126.795 10.6104 126.63 11.0436 126.3 11.3002C125.97 11.5569 125.422 11.6852 124.654 11.6852H121.706V6.80747C121.688 6.4754 121.742 6.14334 121.863 5.83366C121.918 5.72291 121.996 5.6249 122.091 5.54598C122.186 5.46706 122.296 5.40898 122.415 5.37551C122.82 5.27104 123.238 5.22644 123.656 5.24311H125.123C125.463 5.22761 125.804 5.28275 126.123 5.40506C126.441 5.52737 126.731 5.71421 126.974 5.95387C127.439 6.42538 127.696 7.08679 127.744 7.93807C127.76 7.9851 127.809 8.00601 127.889 7.9973C127.969 7.98859 128.009 7.96071 128.009 7.91368L127.96 4.95219C127.964 4.92287 127.962 4.89302 127.952 4.86497C127.943 4.83691 127.927 4.81143 127.906 4.7905C127.885 4.76957 127.86 4.75378 127.832 4.74435C127.803 4.73493 127.774 4.73213 127.744 4.73617H118.074C118.041 4.73617 118.025 4.78495 118.025 4.88076C118.025 4.97657 118.041 5.02535 118.074 5.02535C118.523 5.00714 118.972 5.05171 119.409 5.15775C119.533 5.1896 119.649 5.24796 119.749 5.32884C119.849 5.40972 119.93 5.5112 119.987 5.62636C120.109 5.96554 120.161 6.32567 120.142 6.68553V17.8225C120.16 18.1863 120.108 18.5502 119.987 18.8938C119.932 19.0107 119.852 19.1136 119.752 19.1948C119.652 19.276 119.534 19.3333 119.409 19.3625C118.971 19.4586 118.522 19.499 118.074 19.4827C118.041 19.4827 118.025 19.5314 118.025 19.6273C118.025 19.7231 118.041 19.7718 118.074 19.7718H128.154C128.261 19.7838 128.369 19.7531 128.453 19.6865C128.485 19.6485 128.509 19.6046 128.523 19.5574C128.538 19.5101 128.543 19.4605 128.539 19.4112C128.535 18.3489 128.607 17.2876 128.755 16.2355C128.755 16.2006 128.737 16.1762 128.694 16.1606Z" fill="white"/>
<path d="M144.728 4.7334L143.838 4.75778C143.453 4.79088 143.124 4.80656 142.852 4.80656C142.339 4.80656 141.777 4.7903 141.168 4.75778L140.037 4.7334C140.006 4.7334 139.988 4.78217 139.988 4.87799C139.988 4.9738 140.006 5.02257 140.037 5.02257C140.903 5.02257 141.337 5.31292 141.337 5.8936C141.337 6.27918 141.162 6.75244 140.814 7.31338L137.88 11.8114L133.999 6.12878C133.859 5.95779 133.775 5.748 133.759 5.52777C133.759 5.18982 134.177 5.02257 135.009 5.02257C135.043 5.02257 135.058 4.9738 135.058 4.87799C135.058 4.78217 135.043 4.7334 135.009 4.7334L133.712 4.75778C132.878 4.79146 132.188 4.80772 131.642 4.80656L130.801 4.78218C130.416 4.74908 130.126 4.7334 129.93 4.7334C129.881 4.7334 129.856 4.78217 129.856 4.87799C129.856 4.9738 129.881 5.02257 129.93 5.02257C130.425 5.01321 130.912 5.1561 131.323 5.43196C131.722 5.70372 132.149 6.19324 132.597 6.89877L136.589 12.7434V17.8197C136.609 18.1835 136.556 18.5476 136.434 18.8911C136.38 19.0077 136.3 19.1105 136.2 19.1917C136.1 19.2729 135.983 19.3303 135.858 19.3597C135.419 19.4557 134.97 19.4961 134.522 19.4799C134.475 19.4799 134.45 19.5287 134.45 19.6245C134.45 19.7203 134.475 19.7691 134.522 19.7691C135.019 19.7691 135.412 19.7609 135.701 19.7447L137.361 19.7203L139.044 19.7447C139.317 19.7598 139.702 19.7679 140.199 19.7691C140.248 19.7691 140.27 19.7203 140.27 19.6245C140.27 19.5287 140.248 19.4799 140.199 19.4799C139.751 19.4962 139.303 19.4559 138.865 19.3597C138.741 19.3331 138.626 19.278 138.527 19.1987C138.429 19.1195 138.351 19.0183 138.298 18.9033C138.183 18.5542 138.134 18.1867 138.154 17.8197V12.3601L141.377 7.40396C141.788 6.72579 142.328 6.13413 142.965 5.66191C143.468 5.26875 144.083 5.04549 144.721 5.02432C144.753 5.02432 144.77 4.97554 144.77 4.87973C144.77 4.78392 144.765 4.7334 144.728 4.7334Z" fill="white"/>
<path d="M162.638 16.0271C162.55 16.0271 162.506 16.0393 162.506 16.0881C162.328 17.0822 161.967 17.8598 161.422 18.4207C160.878 18.9817 160.148 19.2627 159.233 19.2639H156.611C156.191 19.2789 155.771 19.2426 155.36 19.1559C155.247 19.1293 155.141 19.0776 155.051 19.0046C154.96 18.9316 154.887 18.8392 154.838 18.7343C154.723 18.4092 154.674 18.0645 154.695 17.7204V6.70714C154.675 6.34329 154.728 5.97918 154.85 5.63578C154.905 5.51822 154.986 5.41423 155.085 5.33116C155.185 5.24808 155.302 5.18794 155.428 5.15497C155.857 5.04961 156.299 5.00504 156.74 5.02257C156.787 5.02257 156.811 4.9738 156.811 4.87799C156.811 4.78217 156.787 4.7334 156.74 4.7334L155.585 4.75778C154.911 4.79146 154.35 4.80772 153.9 4.80656C153.485 4.80656 152.939 4.7903 152.264 4.75778L151.085 4.7334C151.054 4.7334 151.038 4.78217 151.038 4.87799C151.038 4.9738 151.054 5.02257 151.085 5.02257C151.534 5.0045 151.984 5.04906 152.421 5.15497C152.545 5.18564 152.659 5.24369 152.757 5.32482C152.855 5.40596 152.933 5.50807 152.986 5.62359C153.1 5.96453 153.149 6.32377 153.13 6.68276V17.8197C153.148 18.1826 153.099 18.5457 152.986 18.8911C152.935 19.0082 152.858 19.1118 152.76 19.1933C152.662 19.2747 152.546 19.3318 152.421 19.3597C151.983 19.4557 151.534 19.4961 151.085 19.4799C151.054 19.4799 151.038 19.5287 151.038 19.6245C151.038 19.7203 151.054 19.7691 151.085 19.7691H162.185C162.237 19.7759 162.289 19.7718 162.339 19.7571C162.389 19.7424 162.435 19.7174 162.475 19.6837C162.529 19.6029 162.555 19.5057 162.546 19.4085C162.561 18.3068 162.634 17.2066 162.764 16.1125C162.771 16.0637 162.726 16.0358 162.638 16.0271Z" fill="white"/>
<path d="M176.723 5.53929C175.511 4.80996 174.118 4.43852 172.704 4.46793C171.32 4.4728 169.953 4.77645 168.697 5.35812C167.41 5.93959 166.304 6.85808 165.495 8.01649C164.66 9.19528 164.243 10.6104 164.244 12.2619C164.232 13.6234 164.559 14.9667 165.194 16.171C165.812 17.3491 166.745 18.3322 167.889 19.0106C169.094 19.719 170.472 20.0807 171.869 20.0558C173.336 20.0658 174.781 19.7012 176.068 18.9967C177.33 18.3173 178.395 17.3229 179.16 16.1101C179.923 14.9099 180.323 13.515 180.313 12.0929C180.317 10.7924 179.999 9.51125 179.388 8.36316C178.771 7.19813 177.85 6.22218 176.723 5.53929ZM177.721 16.4236C177.274 17.3889 176.554 18.2026 175.651 18.765C174.762 19.2979 173.741 19.573 172.704 19.5593C171.473 19.5754 170.269 19.2003 169.265 18.488C168.228 17.7413 167.413 16.7266 166.908 15.5526C166.334 14.2541 166.046 12.8471 166.065 11.4274C166.065 9.44033 166.562 7.87655 167.556 6.73609C168.55 5.59562 169.93 5.02655 171.695 5.02887C172.956 5.00097 174.198 5.3438 175.266 6.01487C176.298 6.68781 177.12 7.6382 177.636 8.75686C178.217 10.015 178.505 11.3885 178.479 12.774C178.479 14.1828 178.226 15.3993 177.721 16.4236Z" fill="white"/>
<path d="M192.864 5.64744C191.58 5.00636 190.104 4.68524 188.435 4.68408C188.164 4.68408 187.674 4.7015 186.969 4.73286C186.376 4.78164 185.774 4.80602 185.164 4.80602C184.763 4.80602 184.226 4.78976 183.553 4.75725L182.351 4.73286C182.317 4.73286 182.302 4.78163 182.302 4.87745C182.302 4.97326 182.317 5.02204 182.351 5.02204C182.799 5.00382 183.248 5.04839 183.685 5.15443C183.808 5.18544 183.923 5.24361 184.021 5.32469C184.119 5.40576 184.198 5.5077 184.251 5.62305C184.365 5.96399 184.414 6.32323 184.396 6.68222V17.8192C184.415 18.1831 184.361 18.5472 184.239 18.8905C184.184 19.0074 184.104 19.1103 184.004 19.1915C183.904 19.2727 183.786 19.33 183.661 19.3591C183.223 19.4553 182.774 19.4957 182.326 19.4793C182.293 19.4793 182.277 19.5281 182.277 19.6239C182.277 19.7197 182.293 19.7685 182.326 19.7685C182.841 19.7685 183.242 19.7604 183.53 19.7441L185.164 19.7197C185.582 19.7197 185.962 19.7197 186.308 19.7441C186.655 19.7685 186.936 19.7755 187.162 19.7912C187.77 19.84 188.308 19.8643 188.773 19.8643C190.196 19.8772 191.6 19.543 192.864 18.8905C194.091 18.2617 195.12 17.3039 195.834 16.1241C196.577 14.8784 196.956 13.4493 196.928 11.999C196.945 10.6778 196.573 9.38079 195.858 8.26923C195.117 7.13905 194.082 6.23254 192.864 5.64744ZM194.27 16.3158C193.756 17.3265 192.946 18.1571 191.949 18.6972C190.897 19.2492 189.722 19.5266 188.533 19.5037C187.992 19.5246 187.451 19.4551 186.932 19.2982C186.605 19.2029 186.329 18.9826 186.164 18.685C186.01 18.3288 185.94 17.942 185.958 17.5544V6.72925C185.958 6.24844 186.047 5.88784 186.223 5.64744C186.429 5.38883 186.725 5.21722 187.052 5.16663C187.581 5.07411 188.117 5.03385 188.653 5.04643C189.858 5.02392 191.04 5.36776 192.045 6.03243C193.035 6.70275 193.819 7.63524 194.31 8.72564C194.851 9.91885 195.122 11.2167 195.104 12.5268C195.108 14.0029 194.829 15.2659 194.27 16.3158Z" fill="white"/>
<path d="M214.273 13.8267C213.46 13.8755 212.674 13.8993 211.916 13.8981C211.157 13.897 210.147 13.8569 208.884 13.7779C208.866 13.7798 208.849 13.7864 208.834 13.7971C208.82 13.8078 208.808 13.8222 208.801 13.8389C208.776 13.8787 208.764 13.9246 208.764 13.9713C208.764 14.1002 208.813 14.1629 208.909 14.1629C209.79 14.1629 210.412 14.2204 210.773 14.3371C210.936 14.3785 211.086 14.4612 211.208 14.5771C211.33 14.693 211.42 14.8383 211.47 14.9991C211.574 15.3283 211.626 15.9085 211.626 16.7412C211.626 17.5739 211.522 18.1766 211.315 18.593C211.217 18.7939 211.079 18.9726 210.91 19.1177C210.74 19.2628 210.542 19.3712 210.329 19.4361C209.709 19.6006 209.069 19.6734 208.428 19.6521C207.1 19.6707 205.793 19.3136 204.659 18.622C203.525 17.9304 202.609 16.9324 202.017 15.743C201.367 14.4468 201.04 13.0121 201.066 11.562C201.066 9.52498 201.619 7.92113 202.726 6.75047C203.833 5.57981 205.397 4.99738 207.418 5.00319C208.765 5.00319 209.899 5.31618 210.822 5.94216C211.754 6.57992 212.432 7.52526 212.738 8.61273C212.752 8.65976 212.806 8.68067 212.893 8.67196C212.98 8.66325 213.025 8.63537 213.025 8.58834L212.738 5.89338C212.732 5.77516 212.712 5.65812 212.677 5.54497C212.62 5.45799 212.541 5.38765 212.449 5.34115C211.907 5.03353 211.319 4.81751 210.707 4.70181C209.966 4.54724 209.212 4.47075 208.456 4.47361C206.831 4.4469 205.223 4.79254 203.752 5.484C202.425 6.10552 201.293 7.07923 200.481 8.29916C199.679 9.52801 199.264 10.9693 199.289 12.4365C199.271 13.7964 199.625 15.1354 200.312 16.3091C201.02 17.489 202.051 18.4411 203.284 19.0529C204.581 19.7253 206.104 20.0621 207.853 20.0633C209.581 20.0311 211.301 19.805 212.978 19.3891C213.056 19.3724 213.13 19.3391 213.194 19.2915C213.233 19.2354 213.249 19.1674 213.241 19.0999C213.226 18.9061 213.198 18.7135 213.158 18.5233C213.089 18.013 213.061 17.498 213.074 16.9833C213.063 16.3408 213.087 15.6982 213.146 15.0583C213.194 14.6908 213.297 14.4451 213.459 14.3249C213.621 14.2047 213.891 14.1507 214.276 14.1681C214.356 14.1681 214.396 14.1101 214.396 13.9939C214.394 13.9555 214.382 13.9183 214.361 13.8859C214.353 13.8691 214.341 13.8547 214.325 13.8443C214.309 13.8339 214.291 13.8278 214.273 13.8267Z" fill="white"/>
<path d="M226.937 16.1606C226.896 16.1441 226.851 16.1358 226.806 16.1362C226.742 16.1362 226.709 16.1518 226.709 16.1832C226.532 17.146 226.188 17.9009 225.676 18.4479C225.433 18.7123 225.136 18.922 224.806 19.0631C224.475 19.2043 224.119 19.2737 223.76 19.2666H221.835C221.43 19.2824 221.026 19.242 220.633 19.1464C220.519 19.1164 220.414 19.062 220.324 18.9871C220.233 18.9122 220.16 18.8186 220.11 18.7127C219.996 18.397 219.947 18.0617 219.965 17.7267V12.1904H222.808C223.61 12.1904 224.183 12.3426 224.528 12.6468C224.876 12.9517 225.05 13.4569 225.05 14.1624C225.05 14.1955 225.099 14.2112 225.195 14.2112C225.291 14.2112 225.34 14.1955 225.34 14.1624L225.315 13.0074C225.299 12.767 225.291 12.4146 225.293 11.95L225.315 10.0007C225.315 9.9693 225.268 9.95363 225.172 9.95363C225.077 9.95363 225.028 9.9693 225.028 10.0007C225.028 10.6104 224.863 11.0436 224.533 11.3002C224.203 11.5569 223.654 11.6852 222.887 11.6852H219.951V6.80747C219.934 6.4754 219.987 6.14334 220.108 5.83366C220.163 5.72291 220.241 5.6249 220.336 5.54598C220.431 5.46706 220.542 5.40898 220.66 5.37551C221.065 5.27104 221.483 5.22644 221.901 5.24311H223.368C223.709 5.22761 224.049 5.28275 224.368 5.40506C224.686 5.52737 224.976 5.71421 225.219 5.95387C225.684 6.42538 225.941 7.08679 225.989 7.93807C226.005 7.9851 226.054 8.00601 226.134 7.9973C226.214 7.98859 226.254 7.96071 226.254 7.91368L226.205 4.95219C226.209 4.92287 226.207 4.89302 226.197 4.86497C226.188 4.83691 226.172 4.81143 226.151 4.7905C226.13 4.76957 226.105 4.75378 226.077 4.74435C226.049 4.73493 226.019 4.73213 225.989 4.73617H216.319C216.286 4.73617 216.271 4.78495 216.271 4.88076C216.271 4.97657 216.286 5.02535 216.319 5.02535C216.768 5.00714 217.217 5.05171 217.654 5.15775C217.778 5.1896 217.894 5.24796 217.994 5.32884C218.094 5.40972 218.175 5.5112 218.232 5.62636C218.354 5.96554 218.407 6.32567 218.387 6.68553V17.8225C218.406 18.1863 218.353 18.5502 218.232 18.8938C218.178 19.0107 218.097 19.1136 217.997 19.1948C217.897 19.276 217.779 19.3333 217.654 19.3625C217.216 19.4586 216.767 19.499 216.319 19.4827C216.286 19.4827 216.271 19.5314 216.271 19.6273C216.271 19.7231 216.286 19.7718 216.319 19.7718H226.399C226.506 19.7836 226.614 19.753 226.698 19.6865C226.73 19.6485 226.754 19.6046 226.769 19.5574C226.783 19.5101 226.788 19.4605 226.784 19.4112C226.78 18.3489 226.853 17.2876 227 16.2355C226.998 16.2006 226.977 16.1762 226.937 16.1606Z" fill="white"/>
<path d="M115.939 4.06592C115.857 4.06592 115.824 4.09379 115.807 4.15825C115.787 4.26909 115.735 4.37155 115.657 4.45254C115.578 4.53353 115.478 4.58937 115.368 4.61293C114.946 4.70782 114.514 4.74822 114.082 4.73313L112.446 4.75751C111.387 4.79119 110.384 4.80745 109.438 4.80629H109.429C108.481 4.80629 107.479 4.79003 106.421 4.75751L104.785 4.73313C104.353 4.74822 103.921 4.70782 103.499 4.61293C103.389 4.58894 103.289 4.53296 103.211 4.45205C103.133 4.37113 103.08 4.26891 103.06 4.15825C103.043 4.09379 103.01 4.06592 102.928 4.06592C102.846 4.06592 102.823 4.09379 102.823 4.15825C102.898 4.84728 102.933 5.54001 102.928 6.23303C102.928 7.18071 102.909 7.96464 102.909 8.55868C102.909 8.59178 102.957 8.60745 103.053 8.60745C103.149 8.60745 103.198 8.59178 103.198 8.55868C103.247 7.30788 103.503 6.42989 103.968 5.92469C104.432 5.4195 105.202 5.1669 106.278 5.1669C106.792 5.1518 107.307 5.18387 107.816 5.26271C107.944 5.27941 108.067 5.32491 108.176 5.3958C108.284 5.46669 108.375 5.56114 108.441 5.67209C108.558 5.88114 108.616 6.23362 108.616 6.72952V17.8194C108.637 18.189 108.577 18.5587 108.441 18.903C108.374 19.0229 108.281 19.1262 108.168 19.2052C108.056 19.2843 107.927 19.3369 107.792 19.3594C107.293 19.4554 106.785 19.4958 106.278 19.4796C106.229 19.4796 106.205 19.5284 106.205 19.6242C106.205 19.72 106.229 19.7688 106.278 19.7688C106.805 19.7688 107.229 19.7607 107.551 19.7444L109.429 19.72H109.438L111.316 19.7444C111.636 19.7595 112.061 19.7676 112.589 19.7688C112.638 19.7688 112.662 19.72 112.662 19.6242C112.662 19.5284 112.638 19.4796 112.589 19.4796C112.082 19.4958 111.574 19.4554 111.075 19.3594C110.94 19.3369 110.811 19.2843 110.698 19.2052C110.586 19.1262 110.493 19.0229 110.426 18.903C110.29 18.5587 110.23 18.189 110.251 17.8194V6.72952C110.251 6.23245 110.309 5.87998 110.426 5.67209C110.492 5.56114 110.583 5.46669 110.691 5.3958C110.8 5.32491 110.923 5.27941 111.051 5.26271C111.56 5.18394 112.075 5.15188 112.589 5.1669C113.665 5.1669 114.435 5.4195 114.899 5.92469C115.364 6.42989 115.622 7.30788 115.673 8.55868C115.673 8.59178 115.721 8.60745 115.817 8.60745C115.913 8.60745 115.962 8.59178 115.962 8.55868C115.962 7.96464 115.943 7.18071 115.943 6.23303C115.938 5.54001 115.973 4.84728 116.047 4.15825C116.044 4.09379 116.021 4.06592 115.939 4.06592Z" fill="white"/>
<path d="M14.3249 0C11.5375 0.00208684 8.83548 0.962055 6.67157 2.71907C4.50765 4.47608 3.01329 6.9234 2.43888 9.65098C2.39532 9.80428 2.35177 9.98197 2.30648 10.2067C2.17757 10.8495 1.74031 11.1701 1.36577 11.4836C0.864059 11.9035 0.146333 12.5289 0 13.1682C0.553973 12.5585 1.6114 12.1439 2.56953 12.1787C3.52243 12.2972 4.19138 12.7013 4.7349 13.0497C4.96802 13.1993 5.24511 13.265 5.52057 13.2361C5.6349 13.2299 5.74574 13.1946 5.84267 13.1336C5.93959 13.0727 6.01939 12.9881 6.07454 12.8877C6.1326 12.765 6.15838 12.6295 6.14945 12.494C6.14506 12.3542 6.12041 12.2157 6.07628 12.0829C5.92124 11.5899 6.17732 10.8635 7.15113 10.5638C7.54658 10.3356 7.96119 10.1283 8.25908 9.8095C8.65975 9.38444 8.73988 8.66323 8.97158 8.13888C9.01143 8.04296 9.07075 7.95636 9.14578 7.88454C9.93145 6.55535 11.3739 6.61284 12.2118 6.8393C13.095 7.07274 13.3981 6.31669 14.5601 6.02576C15.722 5.73484 16.5199 6.02577 17.5721 6.9055C17.744 7.04937 17.8916 7.21995 18.0094 7.4107C18.0257 7.43847 18.0438 7.46522 18.0634 7.49083C18.1211 7.56732 18.1696 7.65035 18.2079 7.73821C18.2201 7.76782 18.2323 7.79743 18.2463 7.82705C18.2602 7.85666 18.295 7.93854 18.316 7.9908C18.4077 8.2251 18.4708 8.46958 18.5041 8.71898C18.7323 9.8757 17.9344 11.062 16.7951 11.5446C15.7987 11.9679 14.8702 11.778 14.1977 11.2101C14.4648 11.4667 14.7851 11.6613 15.1358 11.7802C15.4866 11.8991 15.8592 11.9394 16.2272 11.8982C16.7121 11.871 17.1854 11.74 17.6152 11.514C18.045 11.288 18.4212 10.9722 18.7184 10.5882C19.3246 9.81473 19.6957 8.91758 20.9621 9.1754C21.9673 9.37922 22.3262 10.0325 22.4586 10.4924C22.6153 10.8408 22.7704 11.1892 23.1188 11.3512C23.4672 11.5132 23.8156 11.461 24.164 11.4993C24.2391 11.5067 24.3136 11.5189 24.387 11.5359C24.582 11.5241 24.7774 11.5483 24.9636 11.6073C25.5803 11.7815 26.258 12.4539 26.258 12.4539L26.4688 12.6281C26.4688 12.4679 26.4775 12.3094 26.4775 12.1473C26.4761 8.92519 25.1951 5.83548 22.9162 3.55756C20.6373 1.27964 17.5471 -2.97952e-07 14.3249 0Z" fill="white"/>
<path d="M25.5337 14.585L25.403 14.7104C25.3047 14.8049 25.2139 14.9068 25.1312 15.0153C25.0354 15.1424 24.9292 15.2522 24.7828 15.4368C24.3817 15.8453 23.9094 16.177 23.3892 16.4159C22.9323 16.6248 22.4504 16.7741 21.9555 16.8601C21.7969 16.8943 21.6351 16.9112 21.4729 16.9106H20.8928C20.8423 16.9133 20.7918 16.9133 20.7413 16.9106C20.25 16.8618 19.8824 16.7172 19.3145 16.4281C18.1979 15.8601 17.9122 15.9385 16.8095 16.4577C16.2659 16.7138 15.82 16.8061 15.4071 16.7416C15.3583 16.7416 15.3095 16.7416 15.2608 16.7416C15.1964 16.7352 15.1324 16.7254 15.0691 16.712C14.5928 16.6406 14.1356 16.4748 13.7243 16.2242C13.5833 16.1593 13.4461 16.0866 13.3132 16.0065C12.8817 15.7595 12.4776 15.4675 12.1076 15.1355C11.8551 14.9107 11.5624 14.6668 11.2488 14.6128C11.1595 14.5904 11.0674 14.581 10.9753 14.585C10.8099 14.5948 10.6503 14.6496 10.5137 14.7435H10.5381C10.6972 14.6696 10.8723 14.6369 11.0474 14.6485C11.2224 14.66 11.3917 14.7155 11.5397 14.8097C11.9439 15.0449 12.2366 16.1302 11.5397 16.8566C10.8429 17.583 9.67748 17.9611 8.22984 17.7677C7.48272 17.687 6.76044 17.4523 6.10859 17.0784C5.45674 16.7045 4.88948 16.1995 4.44261 15.5954C2.87476 13.5693 2.33299 13.6234 2.24414 13.5815C2.5661 16.3443 3.82604 18.913 5.81362 20.8588C7.80119 22.8046 10.3961 24.0097 13.1651 24.2729C15.9341 24.5361 18.7095 23.8415 21.0281 22.305C23.3467 20.7685 25.068 18.4832 25.9047 15.8305C26.0592 15.4878 26.2571 15.1664 26.4935 14.8741C26.8035 14.4991 27.1432 14.1496 27.5091 13.8289C26.3141 13.8881 25.8525 14.2575 25.5337 14.585Z" fill="white"/>
</svg>
